# xmcd CD database file
#
# Track frame offsets:
#	150
#	56475
#	105862
#	193892
#	255607
#	300796
#
# Disc length: 4331 seconds
#
# Revision: 0
# Processed by: cddbd v1.5.2PL0 Copyright (c) Steve Scherf et al.
# Submitted via: CDex 1.51
#
DISCID=4010e906
DTITLE=Phil/Konitz/Rava Woods  -  Play Rava [Import] TG.B0002IVSLA 
DYEAR=2003
DGENRE=Jazz
TTITLE0=1.Certi angoli segreti by Enrico Rava, Phil Woods, Lee Konitz(12:28)
TTITLE1=2. Full of Life by Enrico Rava, Phil Woods, Lee Konitz(10:56)
TTITLE2=3. Medley by Enrico Rava, Phil Woods, Lee Konitz(19:30)
TTITLE3=  4. Se non avessi più te by Enrico Rava, Phil Woods, Lee Konitz(13:40)
TTITLE4=  5. Poinciana by Enrico Rava, Phil Woods, Lee Konitz(10:00)
TTITLE5=  6. Retrato Em Branco e Preto by Barbara Casini, Enrico Rava, Phil Woods, Lee Konitz (05:19)
EXTD=YEAR: 2003
EXTT0=
EXTT1=
EXTT2=
EXTT3=
EXTT4=
EXTT5=
PLAYORDER=
